<svg width="200" height="200" viewBox="0 0 200 200" fill="none" xmlns="http://www.w3.org/2000/svg">
<g clip-path="url(#clip0_1_427)">
<path d="M35.4167 1.61203e-05H164.583C169.236 -0.00448106 173.843 0.932018 178.142 2.75592C182.441 4.57981 186.347 7.25531 189.636 10.6293C192.926 14.0032 195.535 18.0094 197.313 22.4186C199.091 26.8277 200.004 31.5533 200 36.3248V163.675C200.004 168.447 199.091 173.172 197.313 177.581C195.535 181.991 192.926 185.997 189.636 189.371C186.347 192.745 182.441 195.42 178.142 197.244C173.843 199.068 169.236 200.004 164.583 200H35.4167C30.7645 200.004 26.157 199.068 21.8581 197.244C17.5592 195.42 13.6532 192.745 10.3635 189.371C7.07392 185.997 4.46532 181.991 2.68702 177.581C0.908717 173.172 -0.00436903 168.447 1.57173e-05 163.675V36.3248C-0.00436903 31.5533 0.908717 26.8277 2.68702 22.4186C4.46532 18.0094 7.07392 14.0032 10.3635 10.6293C13.6532 7.25531 17.5592 4.57981 21.8581 2.75592C26.157 0.932018 30.7645 -0.00448106 35.4167 1.61203e-05Z" fill="#F0F0F0"/>
<path d="M155.081 52.5586L145.045 164.988L99.9326 177.495L54.9443 165.006L44.9186 52.5586H155.081Z" fill="#E44D26"/>
<path d="M100 167.935L136.453 157.829L145.029 61.7524H100V167.935Z" fill="#F16529"/>
<path d="M80.4902 89.3351H100V75.5439H65.4182L65.7481 79.2438L69.1379 117.249H100V103.457H81.7507L80.4902 89.3351ZM83.5984 124.144H69.7542L71.6861 145.799L99.9365 153.641L100 153.623V139.275L99.9395 139.291L84.5804 135.143L83.5984 124.144Z" fill="#EBEBEB"/>
<path d="M55.168 22H62.1765V28.9243H68.5878V22H75.5967V42.9685H68.5882V35.9471H62.1769V42.9685H55.1684V22H55.168ZM84.8127 28.9537H78.6436V22H97.9954V28.9537H91.8225V42.9685H84.814V28.9537H84.8136H84.8127ZM101.067 22H108.374L112.87 29.3678L117.361 22H124.671V42.9685H117.691V32.5754L112.87 40.0308H112.749L107.924 32.5754V42.9685H101.067V22ZM128.159 22H135.17V36.0377H145.026V42.9685H128.159V22H128.159Z" fill="black"/>
<path d="M99.9525 117.249H116.935L115.334 135.135L99.952 139.286V153.634L128.225 145.799L128.432 143.469L131.673 107.161L132.01 103.457H99.9525V117.249ZM99.9525 89.3014V89.3351H133.265L133.541 86.2355L134.17 79.2438L134.499 75.5439H99.9525V89.3019V89.3014Z" fill="white"/>
</g>
<defs>
<clipPath id="clip0_1_427">
<rect width="200" height="200" fill="white"/>
</clipPath>
</defs>
</svg>
