<svg width="48" height="48" viewBox="0 0 48 48" fill="none" xmlns="http://www.w3.org/2000/svg">
<path d="M10.8576 6.06895C16.1772 10.1191 21.8992 18.3313 24 22.7383C26.1009 18.3316 31.8225 10.1191 37.1424 6.06895C40.9808 3.14649 47.2 0.885261 47.2 8.08062C47.2 9.51763 46.3876 20.1523 45.9111 21.8788C44.2548 27.8812 38.2196 29.4122 32.8511 28.4856C42.2351 30.1053 44.6223 35.4704 39.4668 40.8355C29.6756 51.0249 25.394 38.279 24.2964 35.013C24.0953 34.4143 24.0012 34.1342 23.9998 34.3723C23.9984 34.1342 23.9043 34.4143 23.7032 35.013C22.6061 38.279 18.3246 51.0252 8.5328 40.8355C3.37728 35.4704 5.7644 30.105 15.1486 28.4856C9.77992 29.4122 3.74456 27.8812 2.08856 21.8788C1.61207 20.1521 0.799683 9.51747 0.799683 8.08062C0.799683 0.885261 7.01904 3.14649 10.8573 6.06895H10.8576Z" fill="white"/>
</svg>
