<svg width="163" height="26" viewBox="0 0 163 26" fill="none" xmlns="http://www.w3.org/2000/svg">
<path d="M0 4.99649V4.36306e-05H21.5146V4.99649H13.7962V25.4546H7.73082V4.99649H0ZM27.3034 25.7777C26.0853 25.7777 25.004 25.5747 24.0594 25.1687C23.1231 24.7544 22.3815 24.133 21.8346 23.3044C21.296 22.4675 21.0267 21.4193 21.0267 20.1598C21.0267 19.0992 21.2132 18.2044 21.586 17.4752C21.9589 16.746 22.4726 16.1536 23.1272 15.6978C23.7818 15.2421 24.5358 14.8982 25.3893 14.6662C26.2428 14.4259 27.1542 14.2644 28.1237 14.1815C29.2091 14.0821 30.0833 13.9785 30.7462 13.8708C31.4091 13.7548 31.8896 13.5932 32.1879 13.3861C32.4945 13.1706 32.6478 12.8682 32.6478 12.4787V12.4166C32.6478 11.7786 32.4282 11.2856 31.9891 10.9375C31.5499 10.5895 30.9575 10.4155 30.2117 10.4155C29.408 10.4155 28.7617 10.5895 28.2728 10.9375C27.7839 11.2856 27.4732 11.7661 27.3406 12.3793L21.7352 12.1804C21.9009 11.0204 22.3276 9.98466 23.0154 9.0732C23.7114 8.15345 24.6643 7.43257 25.874 6.91056C27.0921 6.38025 28.5545 6.1151 30.2615 6.1151C31.4795 6.1151 32.6022 6.26011 33.6297 6.55011C34.6572 6.83184 35.5521 7.24614 36.3144 7.79301C37.0767 8.3316 37.665 8.99448 38.0793 9.78165C38.5019 10.5688 38.7132 11.4678 38.7132 12.4787V25.4546H32.9958V22.7948H32.8467C32.507 23.4411 32.0719 23.988 31.5416 24.4354C31.0196 24.8829 30.4023 25.2184 29.6897 25.4422C28.9854 25.6659 28.19 25.7777 27.3034 25.7777ZM29.1801 21.8005C29.8347 21.8005 30.423 21.6679 30.945 21.4027C31.4753 21.1376 31.8979 20.773 32.2128 20.309C32.5277 19.8367 32.6851 19.2898 32.6851 18.6684V16.8537C32.5111 16.9449 32.2998 17.0277 32.0512 17.1023C31.8109 17.1769 31.5458 17.2473 31.2558 17.3136C30.9658 17.3799 30.6675 17.4379 30.3609 17.4876C30.0543 17.5373 29.7602 17.5829 29.4784 17.6243C28.9067 17.7155 28.4178 17.8563 28.0118 18.0469C27.6141 18.2375 27.3075 18.4861 27.0921 18.7927C26.8849 19.091 26.7813 19.4473 26.7813 19.8615C26.7813 20.4913 27.0051 20.9719 27.4525 21.3033C27.9082 21.6348 28.4841 21.8005 29.1801 21.8005ZM59.0967 12.1929L53.5161 12.342C53.4581 11.9443 53.3006 11.5921 53.0438 11.2856C52.7869 10.9707 52.4513 10.7263 52.037 10.5522C51.631 10.37 51.1587 10.2788 50.6201 10.2788C49.9158 10.2788 49.3151 10.4197 48.8179 10.7014C48.329 10.9831 48.0887 11.3643 48.097 11.8449C48.0887 12.2177 48.2379 12.5409 48.5445 12.8143C48.8593 13.0878 49.4186 13.3073 50.2224 13.4731L53.9014 14.1691C55.8071 14.5337 57.224 15.1385 58.1521 15.9837C59.0884 16.8289 59.5607 17.9475 59.569 19.3395C59.5607 20.6487 59.1713 21.788 58.4007 22.7575C57.6383 23.727 56.5943 24.481 55.2686 25.0196C53.9428 25.5499 52.4265 25.815 50.7195 25.815C47.9935 25.815 45.8432 25.2557 44.2689 24.1371C42.7029 23.0102 41.808 21.5022 41.5843 19.613L47.5874 19.4638C47.72 20.1598 48.0639 20.6901 48.6191 21.0547C49.1742 21.4193 49.8827 21.6016 50.7444 21.6016C51.5233 21.6016 52.1572 21.4566 52.646 21.1666C53.1349 20.8766 53.3835 20.4913 53.3918 20.0107C53.3835 19.5798 53.1929 19.236 52.82 18.9791C52.4472 18.7139 51.863 18.5068 51.0676 18.3576L47.7366 17.7238C45.8225 17.3758 44.3973 16.7336 43.461 15.7973C42.5247 14.8527 42.0607 13.6512 42.069 12.1929C42.0607 10.9168 42.4004 9.82722 43.0882 8.92405C43.7759 8.01259 44.7536 7.31657 46.0214 6.83598C47.2892 6.35539 48.7848 6.1151 50.5083 6.1151C53.0935 6.1151 55.1318 6.65783 56.6233 7.7433C58.1148 8.82047 58.9392 10.3037 59.0967 12.1929ZM68.0424 20.4457L68.0673 13.1996H68.9125L74.2818 6.36368H81.1674L73.188 16.1577H71.5847L68.0424 20.4457ZM62.5613 25.4546V4.36306e-05H68.639V25.4546H62.5613ZM74.4185 25.4546L69.4221 17.5249L73.4242 13.212L81.4409 25.4546H74.4185ZM83.3425 25.4546V4.36306e-05H100.718V4.99649H89.4949V10.2167H99.612V15.2255H89.4949V25.4546H83.3425ZM109.894 4.36306e-05V25.4546H103.816V4.36306e-05H109.894ZM122.674 25.815C120.669 25.815 118.945 25.4049 117.504 24.5846C116.07 23.756 114.964 22.6042 114.185 21.1293C113.414 19.6461 113.029 17.9268 113.029 15.9713C113.029 14.0075 113.414 12.2882 114.185 10.8133C114.964 9.33006 116.07 8.17831 117.504 7.358C118.945 6.5294 120.669 6.1151 122.674 6.1151C124.679 6.1151 126.399 6.5294 127.832 7.358C129.274 8.17831 130.38 9.33006 131.151 10.8133C131.929 12.2882 132.319 14.0075 132.319 15.9713C132.319 17.9268 131.929 19.6461 131.151 21.1293C130.38 22.6042 129.274 23.756 127.832 24.5846C126.399 25.4049 124.679 25.815 122.674 25.815ZM122.711 21.2287C123.44 21.2287 124.058 21.005 124.563 20.5576C125.069 20.1101 125.454 19.4887 125.719 18.6932C125.993 17.8978 126.129 16.978 126.129 15.934C126.129 14.8734 125.993 13.9454 125.719 13.1499C125.454 12.3544 125.069 11.733 124.563 11.2856C124.058 10.8381 123.44 10.6144 122.711 10.6144C121.957 10.6144 121.319 10.8381 120.797 11.2856C120.283 11.733 119.89 12.3544 119.616 13.1499C119.351 13.9454 119.219 14.8734 119.219 15.934C119.219 16.978 119.351 17.8978 119.616 18.6932C119.89 19.4887 120.283 20.1101 120.797 20.5576C121.319 21.005 121.957 21.2287 122.711 21.2287ZM138.589 25.4546L133.618 6.36368H139.72L142.293 18.5938H142.455L145.214 6.36368H151.167L154.001 18.5068H154.163L156.661 6.36368H162.764L157.78 25.4546H151.279L148.296 14.3307H148.085L145.102 25.4546H138.589Z" fill="url(#paint0_linear_200_332)"/>
<defs>
<linearGradient id="paint0_linear_200_332" x1="-1.09375" y1="13.4546" x2="169.906" y2="13.4546" gradientUnits="userSpaceOnUse">
<stop stop-color="#6265F7"/>
<stop offset="1" stop-color="#A24DEC"/>
</linearGradient>
</defs>
</svg>
