<svg width="55" height="61" viewBox="0 0 55 61" fill="none" xmlns="http://www.w3.org/2000/svg">
<path d="M7.26616 61H4.29491C6.22192 58.7157 10.4829 53.8319 12.1106 52.5707L12.9503 37.8676C11.7338 39.3583 8.00252 42.2624 2.80928 41.9536C2.14182 41.5139 1.93728 39.9138 6.45876 37.0311C5.88819 37.2885 4.35951 37.488 2.80928 36.2268C1.25905 34.9656 0.333219 34.7361 0.064084 34.779C-0.0758664 34.5431 -0.0780196 33.846 1.03297 32.9451C2.42171 31.8191 3.45519 30.2426 9.43 31.2078L12.9503 32.0443C12.8965 31.4116 12.5046 28.872 11.3678 23.7758C9.73143 23.2504 6.25205 21.3371 5.42526 17.8882C4.39178 13.577 4.1657 7.30327 3.48749 4.37553C3.63821 3.87148 4.44348 3.42321 6.45876 5.66245C8.97785 8.4615 12.3044 14.4457 12.4013 15.4109C13.0902 12.8478 14.4295 7.56709 14.2744 6.94937C14.1194 6.33165 14.2098 3.19585 14.2744 1.70517L16.3091 0C16.8474 3.56048 17.7624 10.9388 17.1165 11.9684C16.3091 13.2553 15.0172 17.9847 15.2433 20.1403C15.4242 21.8648 16.3091 25.9422 16.729 27.7653C17.5148 24.9555 19.2287 19.3681 19.7971 19.4968L21.638 16.8265C20.9813 16.0865 20.6885 13.7121 24.7707 10.1345C25.5997 9.52321 27.3092 8.22985 27.5159 7.94673C27.7743 7.59283 28.3879 7.88238 28.1941 9.00844C28.0003 10.1345 26.9669 14.7031 24.7707 15.7648C23.0138 16.6141 22.7038 17.1697 22.7683 17.3412C22.553 17.9525 22.5229 19.0464 24.1248 18.5316C26.1272 17.8882 24.5123 17.5021 28.1941 16.8265C29.4429 16.0329 32.1536 14.4907 33.0063 14.6709H34.1366L34.5565 15.7648C33.1247 15.7862 29.8477 16.3696 28.1941 18.5316C26.7623 19.6041 23.6726 21.7811 22.7683 21.9098L21.638 22.2637C21.3258 22.3281 20.4236 23.3319 19.3126 26.8323C20.0124 25.8135 22.2645 24.0397 25.675 25.0949L27.0637 25.481C26.0518 27.0039 23.1494 30.3391 19.6356 31.4974H17.9239L18.3761 41.4066C18.6883 42.211 19.3126 45.3639 19.3126 51.5411C21.5519 52.442 26.6116 54.6877 28.9369 56.4636C29.0876 56.6459 29.4666 56.7467 29.7766 55.6915V54.7584C30.0242 54.8335 30.836 54.8292 32.102 54.2115L33.0709 53.7611C33.1031 52.9996 33.284 51.258 33.7491 50.3829C31.4345 47.4873 26.1465 41.5739 23.5112 41.0849C23.4035 40.7525 22.8329 40.287 21.4119 41.0849L20.5399 40.3128V39.1224C21.455 38.8972 23.5564 38.1636 24.6415 37.0311C26.5255 35.6691 30.4742 32.5269 31.1977 30.8539C32.102 28.7627 32.8771 25.9314 28.1941 23.2932L26.4178 21.9098L27.6774 19.4968C28.1618 19.4432 29.3374 19.4968 30.1642 20.1403C30.2874 20.2362 30.3854 20.3128 30.462 20.3731C31.526 20.5853 33.8739 21.6605 35.0732 24.355C35.5254 24.5587 36.4297 24.4837 36.4297 22.5533C36.6342 21.824 37.0304 20.3655 36.9787 20.3655C36.9141 20.3655 34.944 16.8265 38.3028 14.1883C38.432 13.7808 39.2071 12.6376 41.2741 11.3249L42.2107 9.39452C42.5229 9.44814 43.186 9.6712 43.3411 10.1345C43.5348 10.7136 44.3099 15.5396 43.8255 16.4404C43.4379 17.1611 42.5875 18.4566 42.2107 19.0142C40.9081 19.6041 38.3028 21.0797 38.3028 22.2637C37.9691 23.2075 37.2694 25.2301 37.1402 25.7706C36.9787 26.4462 36.0421 30.1139 37.9799 29.2131C39.9177 28.3122 40.3375 28.8592 41.2741 27.3149C42.2107 25.7706 40.5313 25.288 46.4738 21.9098C51.2278 19.2073 52.5024 18.0812 52.5455 17.856C51.8565 21.5881 49.3223 29.2324 44.6975 29.9531C44.0408 30.3499 42.5014 30.9054 41.5971 29.9531C41.3387 30.2855 39.8595 31.0598 36.0098 31.4974C35.2455 33.0631 33.3874 36.3619 32.0697 37.0311C31.9943 37.2671 32.3022 37.6681 34.1366 37.385C35.9711 37.1019 37.4631 35.8729 37.9799 35.2938C37.9261 34.2106 38.9229 32.0443 43.3411 32.0443H48.2824C47.9487 33.3205 46.2671 36.1045 42.2107 37.0311C41.3817 36.9132 39.5495 36.748 38.8519 37.0311C37.9799 37.385 34.4273 39.5406 30.4226 39.1224L29.163 39.5728C32.8232 41.6962 40.7832 46.5028 43.3411 48.7421C43.4357 48.8249 43.525 48.9031 43.6091 48.9768C44.5734 49.1965 46.5596 49.6925 47.1197 49.9968C47.6881 50.3057 49.2297 51.6913 49.9295 52.3455L49.1867 52.7959L45.8925 51.895C48.347 52.9031 53.4175 55.0737 54.0634 55.6915C54.7093 56.3092 54.9569 57.0856 55 57.3966L54.0634 58.2975C53.1914 57.7398 50.9307 56.4379 48.8637 55.6915L48.2824 56.7853C45.6771 56.5816 40.3052 56.2963 39.6593 56.7853C39.0134 57.2744 35.7084 58.9624 34.1366 59.7453L32.0697 59.2627V58.6192C32.1773 58.0508 32.5283 56.8239 33.0709 56.4636L30.0027 57.0106L29.163 59.2627C24.9107 58.5549 15.7988 57.4352 13.3701 58.6192L12.9503 57.654C11.5723 58.2975 8.50635 59.8675 7.26616 61Z" fill="#FFF3E0"/>
</svg>
