<svg width="200" height="200" viewBox="0 0 200 200" fill="none" xmlns="http://www.w3.org/2000/svg">
<path d="M35.4167 1.61203e-05H164.583C169.236 -0.00448106 173.843 0.932018 178.142 2.75592C182.441 4.57981 186.347 7.25531 189.636 10.6293C192.926 14.0032 195.535 18.0094 197.313 22.4186C199.091 26.8277 200.004 31.5533 200 36.3248V163.675C200.004 168.447 199.091 173.172 197.313 177.581C195.535 181.991 192.926 185.997 189.636 189.371C186.347 192.745 182.441 195.42 178.142 197.244C173.843 199.068 169.236 200.004 164.583 200H35.4167C30.7645 200.004 26.157 199.068 21.8581 197.244C17.5592 195.42 13.6532 192.745 10.3635 189.371C7.07392 185.997 4.46532 181.991 2.68702 177.581C0.908717 173.172 -0.00436903 168.447 1.57173e-05 163.675V36.3248C-0.00436903 31.5533 0.908717 26.8277 2.68702 22.4186C4.46532 18.0094 7.07392 14.0032 10.3635 10.6293C13.6532 7.25531 17.5592 4.57981 21.8581 2.75592C26.157 0.932018 30.7645 -0.00448106 35.4167 1.61203e-05Z" fill="#000B1D"/>
<path d="M164.449 45.6183L135.867 31.8569C132.559 30.264 128.605 30.9359 126.009 33.5323L32.4437 118.842C29.9271 121.136 29.93 125.099 32.45 127.39L40.0927 134.338C42.1529 136.21 45.2557 136.348 47.4738 134.666L160.148 49.1885C163.928 46.3208 169.358 49.0169 169.358 53.7616V53.4298C169.358 50.0993 167.45 47.0632 164.449 45.6183Z" fill="#0065A9"/>
<g filter="url(#filter0_d_301_12)">
<path d="M164.449 154.382L135.867 168.143C132.559 169.736 128.605 169.064 126.009 166.468L32.4437 81.1581C29.9271 78.8635 29.93 74.9012 32.45 72.6103L40.0927 65.6624C42.1529 63.7894 45.2557 63.6516 47.4738 65.3343L160.148 150.811C163.928 153.679 169.358 150.983 169.358 146.238V146.57C169.358 149.901 167.45 152.937 164.449 154.382Z" fill="#007ACC"/>
</g>
<g filter="url(#filter1_d_301_12)">
<path d="M135.869 168.146C132.559 169.738 128.606 169.064 126.009 166.468C129.208 169.667 134.679 167.401 134.679 162.877V37.1234C134.679 32.5989 129.208 30.333 126.009 33.5323C128.606 30.9357 132.559 30.2628 135.869 31.8543L164.445 45.5969C167.448 47.041 169.358 50.0781 169.358 53.4101V146.59C169.358 149.922 167.448 152.96 164.445 154.404L135.869 168.146Z" fill="#1F9CF0"/>
</g>
<g style="mix-blend-mode:overlay" opacity="0.25">
<path style="mix-blend-mode:overlay" fill-rule="evenodd" clip-rule="evenodd" d="M128.924 168.41C131.108 169.261 133.6 169.207 135.805 168.146L164.364 154.404C167.365 152.96 169.273 149.923 169.273 146.59V53.4102C169.273 50.0781 167.365 47.0409 164.364 45.5969L135.805 31.8544C132.911 30.4618 129.524 30.8029 126.984 32.6495C126.621 32.9133 126.275 33.2078 125.951 33.5324L71.2781 83.4116L47.4636 65.3346C45.2468 63.6517 42.1459 63.7897 40.0869 65.6625L32.4488 72.6105C29.9303 74.9015 29.9275 78.8636 32.4426 81.1582L53.0953 100L32.4426 118.842C29.9275 121.137 29.9303 125.099 32.4488 127.39L40.0869 134.338C42.1459 136.211 45.2468 136.348 47.4636 134.666L71.2781 116.588L125.951 166.468C126.816 167.333 127.832 167.985 128.924 168.41ZM134.616 68.5102L93.1313 100L134.616 131.49V68.5102Z" fill="url(#paint0_linear_301_12)"/>
</g>
<defs>
<filter id="filter0_d_301_12" x="22.2248" y="55.8259" width="155.466" height="121.506" filterUnits="userSpaceOnUse" color-interpolation-filters="sRGB">
<feFlood flood-opacity="0" result="BackgroundImageFix"/>
<feColorMatrix in="SourceAlpha" type="matrix" values="0 0 0 0 0 0 0 0 0 0 0 0 0 0 0 0 0 0 127 0" result="hardAlpha"/>
<feOffset/>
<feGaussianBlur stdDeviation="4.16667"/>
<feColorMatrix type="matrix" values="0 0 0 0 0 0 0 0 0 0 0 0 0 0 0 0 0 0 0.25 0"/>
<feBlend mode="overlay" in2="BackgroundImageFix" result="effect1_dropShadow_301_12"/>
<feBlend mode="normal" in="SourceGraphic" in2="effect1_dropShadow_301_12" result="shape"/>
</filter>
<filter id="filter1_d_301_12" x="117.676" y="22.6667" width="60.0151" height="154.667" filterUnits="userSpaceOnUse" color-interpolation-filters="sRGB">
<feFlood flood-opacity="0" result="BackgroundImageFix"/>
<feColorMatrix in="SourceAlpha" type="matrix" values="0 0 0 0 0 0 0 0 0 0 0 0 0 0 0 0 0 0 127 0" result="hardAlpha"/>
<feOffset/>
<feGaussianBlur stdDeviation="4.16667"/>
<feColorMatrix type="matrix" values="0 0 0 0 0 0 0 0 0 0 0 0 0 0 0 0 0 0 0.25 0"/>
<feBlend mode="overlay" in2="BackgroundImageFix" result="effect1_dropShadow_301_12"/>
<feBlend mode="normal" in="SourceGraphic" in2="effect1_dropShadow_301_12" result="shape"/>
</filter>
<linearGradient id="paint0_linear_301_12" x1="99.9157" y1="31.0001" x2="99.9157" y2="169" gradientUnits="userSpaceOnUse">
<stop stop-color="white"/>
<stop offset="1" stop-color="white" stop-opacity="0"/>
</linearGradient>
</defs>
</svg>
